<svg width="27" height="22" viewBox="0 0 27 22" fill="none" xmlns="http://www.w3.org/2000/svg">
<path fill-rule="evenodd" clip-rule="evenodd" d="M10.8826 0H4.15168V1.6516H2.40674V10.5326H4.15168V13.6487H5.86556V15.4561H7.51711V17.0453H9.19983V18.7281H10.8514V20.255H14.2168V22H23.0043V20.255H24.5936V13.8478H23.0043V12.0744H18.5351V13.8478H16.9007V15.5691H14.2168V13.8478H12.4844V12.0744H10.8514V10.5326H9.11133V7.67543H10.8514V5.9715H12.4844V1.6516H10.8826V0ZM10.8826 1.6516H4.15168V10.5326H5.86556V13.6487H7.51711V15.4561H9.19983V17.0453H10.8514V18.7281H14.2168V20.255H23.0043V13.8478H18.5351V15.5691H16.9007V17.0453H14.2168V15.5691H12.4844V13.8478H10.8514V12.0744H9.11133V10.5326H7.51711V7.67543H9.11133V5.9715H10.8514L10.8826 1.6516Z" fill="#FCFCFC"/>
</svg>
